<?xml version="1.0" encoding="UTF-8"?>
<svg version="1.1" viewBox="0 0 210 220" xmlns="http://www.w3.org/2000/svg" xmlns:cc="http://creativecommons.org/ns#" xmlns:dc="http://purl.org/dc/elements/1.1/" xmlns:rdf="http://www.w3.org/1999/02/22-rdf-syntax-ns#">
<metadata>
<rdf:RDF>
<cc:Work rdf:about="">
<dc:format>image/svg+xml</dc:format>
<dc:type rdf:resource="http://purl.org/dc/dcmitype/StillImage"/>
<dc:title/>
</cc:Work>
</rdf:RDF>
</metadata>
<circle cx="105" cy="110" r="105" fill="white" />
<g transform="translate(0 -832.36)" stroke="#000">
<path d="m36.517 1051.5s0.50508-8.8389 8.3338-32.072" fill="none" stroke-width="2.7"/>
<path d="m52.426 1023s-32.577-12.627-37.881-35.355c-5.3033-22.728-3.5355-30.305-3.5355-30.305l-7.5762-0.50508s-4.7982 22.981 0.50508 33.84c5.3033 10.859 21.466 21.971 21.466 21.971l2.7779-4.0406" fill="none" stroke-width="2.7"/>
<path d="m3.7411 956.73 5.875-23.375c18.75-5.125 18-5.5 39.75 1.5s28.375 10.875 57.625-9.125c29.25-20 62.125-12.5 72.75-0.625 10.625 11.875 24 25.875 24 25.875" fill="none" stroke-width="2.1"/>
<path d="m52.241 1022.7s-12-21.375-11.125-47.75c0.875-26.375 5.25-41.125 5.25-41.125" fill="none" stroke-width="2.7"/>
<path d="m55.116 936.6-11 8.625" fill="none" stroke-width="2.7"/>
<path d="m121.87 917.98-0.25 20.625s-7.625-1.625-10.875-4.875-5.5-6.75-5.5-6.75" fill="none" stroke-width="2.7"/>
<path d="m191.24 901.6s2.375 18.75 5 24.625c2.625 5.875 5.875 15.375 6.375 18.375s2 9.875 2 9.875 5-10.625 3.625-22.25c-1.375-11.625-5.5-19.375-8.25-22.625s-8.75-8-8.75-8z" fill="none" stroke-width="2.7"/>
<path d="m191.37 902.23s-1.75-25.75-3.125-30.75-3.25-8.25-7.625-12-19-12.875-28.25-15.625-23.375-9.25-43.25-9.25c-19.875 0-41.25 5.25-58.875 13.25s-36.625 27.75-38.875 37.125c-2.25 9.375-5.25 18.375-3.375 31.375 1.875 13 1.75 17 1.75 17" fill="none" stroke-width="1px"/>
<path d="m107.37 851.98s4.125-0.625 6.25 3.625 2.625 2.875 2.5 7.125 0 6.25-2.625 8.875-4.25 3.25-6.5 3.25-4.75-0.125-7.125-2.125c-2.375-2-3.375-6.125-3.375-9.375s1.375-6.625 3.375-8.375c2-1.75 4-3.125 7.5-3z" stroke-width="1px"/>
<path d="m107.99 845.1s5 0.375 9.5 3.625 5.625 9.25 5.25 14.5-0.5 10.5-5.125 14.75-6.875 4.75-12.625 4.75c-5.75 0-8.125-1.75-11.375-4.625s-4.875-7.625-4.625-12.625 1.5-9.625 5.5-13.375 6.875-7.25 13.5-7z" fill="none" stroke-width="1px"/>
<path d="m23.821 1010.9c-9.4499-7.0657-16.578-14.544-19.395-20.35-1.396-2.8767-2.1264-6.2868-2.4272-11.332-0.31484-5.2806 0.26084-12.967 1.5163-20.244l0.27826-1.6131 0.53787 6e-3c0.29583 3e-3 1.7908 0.0928 3.3221 0.19888l2.7842 0.19287-0.0271 0.22097c-0.0149 0.12153-0.0491 1.411-0.076 2.8654-0.0814 4.3972 0.28753 8.4769 1.3476 14.901 0.70228 4.2558 1.9481 10.272 2.6906 12.993 1.3306 4.8763 3.8002 9.3604 7.6915 13.965 1.0005 1.184 4.0358 4.2975 5.106 5.2375l0.55761 0.4898-1.2078 1.7546c-0.66431 0.9651-1.217 1.7647-1.2281 1.777-0.0111 0.012-0.67314-0.4659-1.4711-1.0625z" stroke-width=".088388"/>
<path d="m53.741 872.73s-0.875-9.75 4.5-15.875 9.75-7.25 13.25-5.625 6.5 3.25 8.25 7.875c1.75 4.625 1.125 8 0.375 8.5-0.75 0.5-3.125 0.375-4-1.125s-0.75-5.125-5.625-4.875-5.5 0-8.25 2.875-2.375 2.25-2.375 7.875 1.25 6.75 3 8.875 3.875 3.625 8.375 3.5 5-1 6.375-3.25 1.375-4.25 2.875-4.125c1.5 0.125 2.5-1.25 1.5 5.75s-4.75 9.625-8.25 9.75-8.375 0.625-12.875-3.25-5.8311-4.6244-6.8737-11.037c-0.4545-2.7953-0.2513-5.8384-0.2513-5.8384z" fill="none" stroke-width="1px"/>
<path d="m128.82 867.63s-0.0884-7.1595 4.773-14.584c4.8614-7.4246 12.198-7.6898 15.203-3.8007 3.0052 3.8891 4.4194 5.3917 4.331 8.6621-0.0884 3.2704-2.1213 7.6898-4.2426 3.3588s-0.79549-5.5685-6.4524-5.5685c-5.6568 0-7.4246 4.0659-8.0433 8.5737-0.61872 4.5078-0.26516 9.0156 6.2756 11.667 6.5407 2.6516 8.7504-5.3033 10.341-5.3917 1.591-0.0884 1.5026 1.8562-0.35355 7.8666-1.8562 6.0104-11.667 6.8059-16.794 1.591-5.1265-5.2149-3.5355-2.9168-4.4194-5.5685-0.88388-2.6516-0.61871-6.8059-0.61871-6.8059z" fill="none" stroke-width="1px"/>
<path d="m165.05 858.61s-0.25234 0.11425-0.39244 0.7856c-0.44056 2.1111-1.4708 7.1815-2.4432 12.949-0.90429 6.1909-1.6916 11.872-1.986 14.012-0.0797 0.57911 0.0314 0.78824 0.0314 0.78824l0.47076 0.34816 3.1114 1.1823 0.66044 0.0163 0.46614-0.51442 3.4387-5.866 0.75764-0.77902 0.94145-0.1716 3.5279 0.37993 0.92231 0.36619 0.46581 0.89008 2.912 13.478 0.29516 0.59024 0.40702 0.27661 2.5198 0.69762 0.61362-0.0475 0.17542-0.74566-2.5717-16.167c-0.0312-0.9375-0.0506-0.86785 0.13689-2.4616 0.21875-1.5938 0.22647-1.598 0.57022-2.4105l3.5666-6.4596 0.20772-0.71282-0.12966-0.65286-1.3658-2.5512-0.60463-0.47581-0.59599 0.35047-4.3524 8.4171-0.53757 0.64841-0.84508 0.0364-6.4018-1.1014-0.58473-0.30658-0.14233-0.59763 2.2154-11.383-0.0641-0.80113-0.51702-0.5046-3.7611-1.3107z" fill="none" stroke-width="1px"/>
<path d="m90.635 995.17s-1.0607 5.8336 3.182 5.8336 4.0659 0 6.0104-1.4142c1.9445-1.4142 3.0052-2.1213 3.0052-2.1213s1.9446 3.5355 6.5407 3.7123 4.0659 0 6.0104-1.591c1.9445-1.591 1.9445-1.7678 1.9445-1.7678" fill="none" stroke-width="3.2"/>
<path d="m69.991 983.23s-9.5-4.25-10.5-19.5 7.5-26 7.5-26-1.125 6.75 0.625 9.125 14.125 2.375 17.75 0.125 12-20 12-20 3.875 14.625 4 26.375 1.375 16-3.125 22.875c-4.5 6.875-4.5 6.875-4.5 6.875s3.75-6.875 2.625-10-3.125-4.875-4.75-4.75-1.75 8.5-5.625 10.625-4.75 2-8.125 1.5c-3.375-0.5-4.375-1.625-5.5-4s-2-5.625-2-5.625-3.875 3.625-3.75 5.875 3.375 6.5 3.375 6.5z" fill="none" stroke-width="1px"/>
<path d="m67.203 980.75c-3.9683-3.5972-6.4733-9.1332-7.1608-15.826-0.19875-1.9345-0.17185-6.0158 0.0522-7.9206 0.63091-5.3636 2.3015-10.601 4.8558-15.224 1.0793-1.9532 1.2975-2.0441 1.233-0.51348-0.0512 1.2139 0.16683 3.5188 0.40802 4.3143 0.49489 1.6323 1.15 2.2521 2.9469 2.7875 2.1528 0.64145 6.7272 0.87961 10 0.52064 3.5394-0.38822 5.55-1.0291 6.7643-2.1562 1.5453-1.4342 4.3327-5.7626 7.247-11.253l0.67624-1.2741 1.0625-0.59001c0.58437-0.32451 1.4198-0.80586 1.8565-1.0697 0.43672-0.26381 0.83503-0.47965 0.88514-0.47965 0.18005 0 1.2602 5.6841 1.8766 9.875 0.67685 4.6021 0.87978 7.1846 1.0706 13.625 0.27865 9.4028 0.24104 11.4-0.26071 13.844-0.47148 2.2972-1.3789 4.3324-3.1782 7.1287-0.58438 0.90813-1.0988 1.6513-1.1431 1.6515-0.0443 2.5e-4 0.0507-0.51557 0.21111-1.1462 0.57085-2.2435 0.527-3.3112-0.20278-4.9378-1.1925-2.6578-3.2889-4.4188-4.9006-4.1165-0.65303 0.12251-0.99548 0.68528-1.6055 2.6383-2.0086 6.4311-2.5085 7.2322-5.3816 8.6237-2.2731 1.1009-3.3034 1.2528-5.9493 0.87664-3.3564-0.47713-4.4516-1.1428-5.5782-3.3909-0.58319-1.1637-1.5312-3.6739-2.0122-5.3282-0.1949-0.67031-0.39354-1.2188-0.44143-1.2188-0.14063 0-2.0114 1.9958-2.6446 2.8213-0.75098 0.97912-1.4229 2.2124-1.6056 2.947-0.25451 1.0232 0.29998 2.7169 1.6207 4.9505 0.21343 0.36094 0.34472 0.65563 0.29176 0.65487-0.053-7.5e-4 -0.50016-0.3675-0.9938-0.81497z" stroke-width=".2375"/>
<path d="m121.74 927.73s9.75-12.75 17.375-12.625 12.25 0.875 16.375 9.125c4.125 8.25 7 10.375 7.75 26s0.875 16.875-2.25 22.75-5.75 8.75-5.75 8.75 0.875-5 0.75-7.5-2.25-5.5-2.25-5.5-1.5 4.375-4.75 7.5-4.125 3.625-6.375 3.625-5.75-2.25-6.875-5-2.125-5.875-2.125-5.875-2.25 3.75-2.25 6.5 3.75 7.125 3.75 7.125-4.875-0.875-7.5-7.5-1.875-14.875-2-19.875 1.75-12 2.75-14.5 2.25-5.125 2.25-5.125-1.875 7.75 0.625 9.75 15-1.5 16.75-2.25 6-12.625 5.125-16.25c-0.875-3.625-11.375-9-16.625-6.75s-6.75 3-9.625 6c-2.875 3-5.25 7.625-5.25 7.625" fill="none" stroke-width="1px"/>
<path d="m132.6 980.97c-1.6406-1.1063-2.9186-2.6154-3.9446-4.6576-1.4486-2.8837-2.2182-6.3902-2.4966-11.375-0.16709-2.9923-0.16578-10.526 2e-3 -12.375 0.34797-3.8307 1.4748-8.7716 2.7153-11.906 0.31969-0.80781 0.61152-1.4688 0.6485-1.469 0.037-1.2e-4 0.0501 0.69196 0.0292 1.538-0.0593 2.3984 0.38284 4.0257 1.3165 4.8455 1.4562 1.2785 5.9038 1.0143 12.909-0.76681 3.1871-0.81036 4.3671-1.2346 4.8919-1.7588 0.89876-0.89781 2.0646-3.3722 3.2315-6.8589 1.6269-4.861 2.1236-8.444 1.3876-10.01-1.2662-2.6938-6.3455-5.7356-11.261-6.7439-1.7901-0.36722-4.0132-0.29728-5.3125 0.16714-2.4271 0.86757-5.9734 2.6615-7.4457 3.7665-2.0635 1.5487-4.6158 4.478-6.3319 7.2673l-0.72233 1.174-0.0345-1.9459-0.0345-1.9459 0.96008-1.1815c0.52804-0.64983 1.8156-2.0652 2.8613-3.1453 2.8714-2.966 5.6273-5.2158 7.8665-6.4219 2.8833-1.553 4.4286-1.8139 8.707-1.4698 4.1744 0.33577 6.4982 1.2133 8.6922 3.2825 1.7031 1.6062 2.4246 2.6687 4.5132 6.6454 0.68603 1.3062 1.7317 3.2893 2.3237 4.4068 2.5964 4.9014 3.6977 8.6501 4.3239 14.718 0.37632 3.6466 0.79177 12.565 0.79195 17 1.2e-4 3.7341-0.15421 5.1776-0.74471 6.9642-0.37875 1.146-1.7778 4.0528-2.8449 5.9108-0.87614 1.5256-3.2136 5.0696-3.5008 5.308-0.18685 0.15508-0.20126 0.14151-0.13802-0.12992 0.17216-0.73887 0.44294-3.6634 0.44397-4.7951 1e-3 -1.4886-0.22809-2.5091-0.88051-3.9163-0.52344-1.129-1.7088-3.1542-1.8461-3.1542-0.0473 0-0.2206 0.35156-0.3851 0.78125-0.74793 1.9536-2.0892 4.2849-3.3399 5.805-1.016 1.235-3.5632 3.5943-4.4805 4.1501-2.3472 1.4221-5.5142 0.65128-7.9287-1.9298-1.1013-1.1773-1.4381-1.8953-3.0066-6.4106l-0.8395-2.4165-0.88983 1.7349c-1.5528 3.0274-2.1151 5.2479-1.723 6.804 0.26549 1.0539 1.1179 2.8031 1.9858 4.0754 0.38695 0.56719 0.63472 1.0295 0.5506 1.0274-0.0841-2e-3 -0.54315-0.26698-1.02-0.58855z" stroke-width=".2375"/>
<path d="m189.98 936.31-4.331 0.35355s10.088 27.193 5.8382 47.193c-4.25 20-4.25 24-11.75 32s-13.75 8.5-13.75 8.5" fill="none" stroke-width="2.7"/>
<path d="m166.3 1026.3-1.0165-14.672" fill="none" stroke-width="2.7"/>
<path d="m169.83 942.67s2.9168 11.579 2.8284 23.335c-0.0884 11.756 0.53033 19.534 0.53033 19.534s7.3362 4.331 8.3969 6.0988 1.7678 3.0936 1.7678 3.0936-10.489 14.497-23.864 21.247-20.125 5.875-20.125 5.875" fill="none" stroke-width="2.7"/>
<path d="m150.49 1019.9 1.875 5.875s4.625-3.375 7.25-6.875 3.25-4.625 3.25-4.625" fill="none" stroke-width="1px"/>
<path d="m152.36 1024.3c-0.98527-3.0806-1.3295-4.1982-1.3011-4.2242 0.0184-0.017 0.62404-0.2525 1.3459-0.5237 2.1865-0.8215 4.0682-1.654 6.5625-2.9035 1.3062-0.6543 2.4226-1.2109 2.4809-1.2368 0.49614-0.2204-2.7017 3.906-4.2838 5.5277-1.3942 1.4292-4.2688 3.9542-4.5015 3.9542-0.0621 0-0.19843-0.2672-0.30288-0.5937z" stroke-width=".2375"/>
<path d="m117.55 983.2 4.331 1.6352" fill="none" stroke-width="2.5"/>
<path d="m148.09 1020.5s3.182 9.3692 4.8614 18.12c1.6794 8.7505 2.74 12.816 2.74 12.816" fill="none" stroke-width="2.7"/>
<path d="m142.78 1021.7 3.2704 29.522" fill="none" stroke-width="2.7"/>
<path d="m47.116 1011.2s4 2.75 13.875 5.875l9.875 3.125" fill="none" stroke-width="2.7"/>
<path d="m62.616 1051.2-0.625-34" fill="none" stroke-width="2.7"/>
<path d="m70.491 1020.1s6.875-3 11.75-2c4.875 1 11.375 3.75 20.5 3.5 9.125-0.25 10.875-0.75 16.625-3.75s16.625-2.625 18.125-0.875 4.125 5.625 0.875 11.875-9.875 18.125-13.625 18.125-14.625-5.875-14.625-5.875h-14.25s-10.25 8.375-14.625 8.625c-4.375 0.25-7.625-6.875-7.75-9.625s-0.75-4.875-3.375-7.25-3.875-6.75-3.25-9.25 3.625-3.5 3.625-3.5z" fill="none" stroke-width="2.7"/>
<path d="m97.241 1021.4s0.875 12 0.875 15.875-0.125 3.875-0.125 3.875" fill="none" stroke-width="2.6"/>
<path d="m110.37 1021.5s0.375 9.375 0.25 13-0.375 6.75-0.375 6.75" fill="none" stroke-width="2.6"/>
<path d="m121.87 1027.7-11 4.5" fill="none" stroke-width="2.7"/>
<path d="m85.241 1032.6 12.625-1.875" fill="none" stroke-width="2.7"/>
<path d="m90.116 1045.5s1.625 6.5 4.25 6 9.625-8.5 9.625-8.5 6 8.25 9.375 8.375 5.25-6.25 5.25-6.25" fill="none" stroke-width="1px"/>
<path d="m93.542 1051c-0.5867-0.2426-1.5678-1.6483-2.1848-3.1304-0.77633-1.8648-0.8375-2.3785-0.3204-2.6911 0.2259-0.1365 1.46-1.0314 2.7426-1.9887l2.3318-1.7405h6.896 6.896l3.1465 1.5682c1.7306 0.8625 3.5642 1.7473 4.0746 1.9663 0.51044 0.219 0.92807 0.482 0.92807 0.5844 0 0.5288-1.518 3.214-2.3016 4.0714-1.753 1.9181-3.0746 1.7458-6.0138-0.7839-1.1428-0.9835-3.7438-3.8626-5.1053-5.651l-0.60445-0.7939-2.224 2.3789c-3.248 3.4743-6.2942 6.045-7.4389 6.2777-0.24307 0.049-0.61313 0.019-0.82235-0.067z" stroke-width=".44194"/>
<path transform="translate(0 832.36)" d="m199.06 112.17c-4.0117-4.2364-9.3887-10.033-14.386-15.508-5.2442-5.7456-5.3464-5.8517-6.843-7.0994-4.4404-3.7022-11.541-6.8211-18.866-8.2867-5.1971-1.0398-6.3273-1.1415-12.736-1.1455-6.168-0.0039-6.9408 0.05493-11.844 0.90128-7.7983 1.3461-15.74 4.2391-22.893 8.3395-1.1667 0.66884-4.4435 2.7412-7.2817 4.6052-2.8382 1.864-5.2732 3.4324-5.411 3.4853-0.193 0.07406-0.36581-0.39792-0.75161-2.0528l-0.50098-2.149-1.7256 3.4477c-1.1884 2.3745-1.8794 3.5566-2.2197 3.7975-0.70611 0.49982-5.5081 2.8805-7.3884 3.663-3.2471 1.3512-6.335 2.2373-9.2808 2.663-2.0323 0.29372-5.9024 0.30328-7.955 0.0196l-1.5026-0.20765-0.05487-0.66291c-0.03018-0.3646-0.1231-0.66291-0.20651-0.66291-0.0834 0-0.26971-0.0453-0.41402-0.10068-0.16939-0.065-0.37812 0.0971-0.58898 0.45747-0.31049 0.53059-0.36698 0.55287-1.144 0.45111-1.1707-0.15332-5.7049-1.4637-11.027-3.1868-15.911-5.1516-19.815-6.2253-24.151-6.6426-4.0467-0.38947-8.0423 0.24999-16.682 2.6698-1.3626 0.38163-2.6166 0.69409-2.7867 0.69434-0.25167 3.75e-4 -0.30936-0.15757-0.30936-0.8469 0-1.2365-0.6025-6.8569-1.3139-12.257-0.86906-6.5965-1.0607-9.7302-0.82152-13.43 0.33699-5.2119 0.88723-8.4092 2.7501-15.981 1.3323-5.415 1.5774-6.1588 2.7551-8.3631 2.1499-4.0236 5.569-8.4004 10.505-13.447 8.1874-8.3711 17.403-15.164 26.022-19.18 15.675-7.3044 34.572-12.121 51.799-13.202 4.8526-0.30457 13.556-0.13393 17.54 0.3439 6.0997 0.73156 11.737 1.9303 18.349 3.9021 5.2156 1.5552 17.591 5.7637 19.772 6.7238 8.8353 3.8894 19.849 10.65 24.18 14.842 2.1937 2.1234 3.2464 3.5166 4.346 5.7521 1.7552 3.5684 2.2996 6.1296 3.1953 15.032 0.61334 6.0965 1.5568 17.277 1.4677 17.393-0.0316 0.0409-0.25576-0.11189-0.49806-0.33952-0.24231-0.22763-0.48704-0.36739-0.54386-0.31057-0.1151 0.11511 0.87176 7.233 1.7065 12.308 1.3775 8.375 2.4922 12.799 4.3916 17.429 2.7514 6.7067 4.9516 13.218 5.6672 16.771 0.21218 1.0536 0.35194 1.9495 0.31056 1.9909-0.0414 0.0414-1.2249-1.1388-2.6301-2.6227zm-16.757-46.742c0.0708-0.34887-0.37445-3.5839-1.1922-8.6621-1.754-10.892-1.772-10.639 1.1245-15.857 2.326-4.1902 2.3585-4.3581 1.2364-6.3873-0.42904-0.77585-0.97882-1.559-1.2217-1.7404-0.40596-0.3031-0.48286-0.30788-0.95151-0.0592-0.40614 0.21551-0.97093 1.169-2.7764 4.6873-1.2466 2.4292-2.3899 4.4641-2.5406 4.522-0.23398 0.08979-5.9133-0.80147-6.8159-1.0696-0.17231-0.05119-0.30912-0.26282-0.30883-0.47774 3.5e-4 -0.21221 0.47758-2.8345 1.0607-5.8274 0.58307-2.9929 1.0601-5.6638 1.0601-5.9354 0-0.29179-0.17244-0.65583-0.42147-0.88978-0.44965-0.42243-3.7727-1.6633-5.0016-1.8677-0.6504-0.10817-0.76988-0.07379-1.0019 0.2883-0.24605 0.38404-1.091 4.3663-2.1501 10.134-0.64005 3.4854-2.5619 16.955-2.5619 17.955 0 0.98891 0.11562 1.0859 2.269 1.9033 1.7676 0.67098 2.4805 0.70957 2.9861 0.16161 0.20186-0.21876 1.1598-1.7501 2.1287-3.403 1.2379-2.1118 1.9045-3.0759 2.2422-3.2431 0.39228-0.19417 0.80647-0.19998 2.2548-0.0316 2.1829 0.25378 2.5075 0.37219 2.7569 1.0059 0.10847 0.27555 0.83672 3.4692 1.6183 7.097 0.7816 3.6278 1.4964 6.7368 1.5885 6.9088 0.0921 0.17203 0.28481 0.41022 0.42829 0.52931 0.43045 0.35724 2.443 0.87348 3.2876 0.84328 0.73506-0.02628 0.79683-0.06634 0.90213-0.58506zm-107.32-4.6711c2.8948-0.49794 5.5468-3.1568 6.687-6.7044 0.65569-2.0401 0.97827-4.2099 0.99084-6.6649 0.01402-2.7362-0.05963-2.8659-1.632-2.8754-1.5224-0.0091-1.8733 0.28229-2.8487 2.3658-1.8495 3.9508-2.6344 4.628-5.727 4.9413-3.9265 0.39775-6.4927-0.41706-8.7293-2.7716-2.9175-3.0714-3.3969-4.5278-3.4078-10.354-0.0033-1.7652 0.07777-3.1741 0.20767-3.6077 0.15563-0.51944 0.6922-1.1971 1.9887-2.5118 2.3063-2.3385 2.7055-2.5224 5.9884-2.7586 4.5447-0.32691 5.4014 0.08146 6.6601 3.1746 0.69063 1.6971 0.96846 2.0719 1.8534 2.5003 0.88207 0.427 2.6178 0.53711 3.228 0.20478 0.69948-0.38096 0.98282-1.3443 0.99587-3.386 0.02336-3.6535-1.3997-7.5157-3.7125-10.076-1.2625-1.3975-4.3293-3.251-6.7689-4.0909-3.6732-1.2647-8.2987 0.85172-12.54 5.7377-2.4544 2.8276-3.6411 5.3564-4.4902 9.5687-0.34984 1.7355-0.39413 2.497-0.39641 6.8152-0.0026 4.8443 0.07124 5.7125 0.72868 8.5737 0.39007 1.6976 1.4471 3.8905 2.3805 4.9388 1.1556 1.2977 4.1378 3.8994 5.5751 4.8637 1.2952 0.86895 3.0095 1.6071 4.5714 1.9684 1.885 0.43603 6.2741 0.51366 8.3969 0.14851zm69.79-9.4582c2.6647-0.54541 4.9465-2.129 5.8598-4.0668 0.78641-1.6685 1.8061-5.6954 1.8376-7.2573 0.0348-1.7244-0.23701-2.1856-1.2883-2.1856-0.69741 0-1.1864 0.42112-2.5661 2.2097-1.9135 2.4806-3.2781 3.4326-5.1287 3.578-2.5078 0.19695-6.36-2.0109-7.7847-4.4619-0.81656-1.4047-1.0201-2.5724-0.9221-5.2894 0.18052-5.0035 1.5556-7.9647 4.3337-9.3324 1.1641-0.5731 1.214-0.58102 3.6588-0.58102 3.5181 0 3.5927 0.04993 4.8821 3.2704 1.1243 2.8079 1.938 3.898 2.9306 3.9262 1.0054 0.02858 1.6859-0.63597 2.3334-2.2787 0.87257-2.2137 0.80923-5.0979-0.15458-7.0392-0.65454-1.3184-2.4793-3.8706-3.857-5.3947-3.2342-3.5778-8.6821-3.1937-13.026 0.91823-3.5144 3.3267-6.4013 9.37-7.2595 15.196-0.43628 2.9621-0.27426 7.3962 0.35434 9.6976l0.45869 1.6794 2.6051 2.5783c1.7907 1.7723 2.9919 2.8047 3.8425 3.3026 2.7568 1.6136 5.8669 2.1489 8.8905 1.53zm-34.501-0.87971c1.8119-0.37353 3.5275-1.1843 5.2815-2.496 3.4579-2.586 5.4706-5.2342 6.4256-8.4546 0.71812-2.4216 1.265-7.0357 1.2635-10.66-3e-3 -6.2005-2.4926-11.219-6.7576-13.62-6.6714-3.7555-12.45-3.8111-17.413-0.16774-1.7718 1.3005-5.5463 4.8881-6.6912 6.3598-1.7313 2.2255-2.9789 5.2651-3.527 8.5933-0.41645 2.5288-0.28844 6.9514 0.25947 8.9649 0.49486 1.8185 1.7177 4.3197 2.7419 5.6082 0.90148 1.1341 3.6256 3.4508 5.122 4.3559 1.3711 0.82931 3.656 1.5792 5.4191 1.7785 2.0163 0.22796 6.1707 0.08996 7.8762-0.26165z" stroke-width=".56569"/>
<path transform="translate(0 832.36)" d="m95.679 99.175c0.0049-0.07292 0.35371-0.80846 0.77516-1.6345l0.76629-1.5019 0.19612 0.70645c0.3414 1.2298 0.27501 1.4243-0.68845 2.0171-0.93618 0.57604-1.0634 0.62611-1.0491 0.41291z" stroke-width=".56569"/>
</g>
</svg>
